<svg xmlns="http://www.w3.org/2000/svg" version="1.1" xmlns:xlink="http://www.w3.org/1999/xlink" width="200" height="200"><svg xmlns="http://www.w3.org/2000/svg" version="1.1" xmlns:xlink="http://www.w3.org/1999/xlink" viewBox="0 0 200 200"><rect width="200" height="200" fill="url('#gradient')"></rect><defs><linearGradient id="SvgjsLinearGradient1001" gradientTransform="rotate(45 0.5 0.5)"><stop offset="0%" stop-color="#000000"></stop><stop offset="100%" stop-color="#606060"></stop></linearGradient></defs><g><g fill="#ffffff" transform="matrix(3.9477404155065323,0,0,3.9477404155065323,7.997245357337363,121.59288804876802)" stroke="#ceaa96" stroke-width="0.2"><path d="M0.51-5.36L0.51-5.36Q0.51-7.87 1.59-9.32Q2.68-10.76 4.62-10.76L4.62-10.76Q6.04-10.76 7.00-9.65L7.00-9.65L7.00-15L10.30-15L10.30 0L7.34 0L7.18-1.13Q6.16 0.20 4.60 0.20L4.60 0.20Q2.71 0.20 1.61-1.25Q0.51-2.70 0.51-5.36ZM3.81-5.76L3.80-5.16Q3.80-2.34 5.44-2.34L5.44-2.34Q6.53-2.34 7.00-3.26L7.00-3.26L7.00-7.29Q6.55-8.22 5.46-8.22L5.46-8.22Q3.94-8.22 3.81-5.76L3.81-5.76ZM17.94-4.82L15.75-4.82L15.75 0L12.32 0L12.32-14.22L18.00-14.22Q19.63-14.22 20.88-13.62Q22.14-13.02 22.83-11.91Q23.52-10.80 23.52-9.39L23.52-9.39Q23.52-7.31 22.03-6.07Q20.54-4.82 17.94-4.82L17.94-4.82ZM15.75-11.57L15.75-7.47L18.00-7.47Q18.99-7.47 19.52-7.97Q20.04-8.47 20.04-9.38L20.04-9.38Q20.04-10.37 19.50-10.97Q18.96-11.56 18.04-11.57L18.04-11.57L15.75-11.57ZM24.66-4.82L24.65-5.38Q24.65-6.96 25.26-8.20Q25.88-9.43 27.03-10.10Q28.18-10.76 29.74-10.76L29.74-10.76Q32.11-10.76 33.48-9.29Q34.84-7.82 34.84-5.29L34.84-5.29L34.84-5.18Q34.84-2.71 33.47-1.25Q32.10 0.20 29.76 0.20L29.76 0.20Q27.50 0.20 26.13-1.16Q24.77-2.51 24.66-4.82L24.66-4.82ZM27.95-5.77L27.94-5.18Q27.94-3.71 28.40-3.03Q28.86-2.34 29.76-2.34L29.76-2.34Q31.51-2.34 31.55-5.05L31.55-5.05L31.55-5.38Q31.55-8.22 29.74-8.22L29.74-8.22Q28.09-8.22 27.95-5.77L27.95-5.77ZM46.10-5.36L46.10-5.21Q46.10-2.74 45.00-1.27Q43.89 0.20 42.00 0.20L42.00 0.20Q40.55 0.20 39.61-0.87L39.61-0.87L39.61 4.06L36.32 4.06L36.32-10.57L39.39-10.57L39.49-9.59Q40.44-10.76 41.98-10.76L41.98-10.76Q43.94-10.76 45.02-9.32Q46.10-7.88 46.10-5.36L46.10-5.36ZM42.81-5.06L42.81-5.41Q42.81-8.22 41.17-8.22L41.17-8.22Q40-8.22 39.61-7.38L39.61-7.38L39.61-3.22Q40.04-2.34 41.19-2.34L41.19-2.34Q42.76-2.34 42.81-5.06L42.81-5.06Z"></path></g></g></svg><style>@media (prefers-color-scheme: light) { :root { filter: none; } }
@media (prefers-color-scheme: dark) { :root { filter: none; } }
</style></svg>